<svg width="18.000000" height="18.580994" viewBox="0 0 18 18.581" fill="none" xmlns="http://www.w3.org/2000/svg" xmlns:xlink="http://www.w3.org/1999/xlink">
	<desc>
			Created with Pixso.
	</desc>
	<defs>
		<clipPath id="clip1_688">
			<rect id="bi:cart" rx="0.000000" width="17.000000" height="17.580978" transform="translate(0.500000 0.500000)" fill="white" fill-opacity="0"/>
		</clipPath>
	</defs>
	<rect id="bi:cart" rx="0.000000" width="17.000000" height="17.580978" transform="translate(0.500000 0.500000)" fill="#FFFFFF" fill-opacity="0"/>
	<g clip-path="url(#clip1_688)">
		<path id="Vector" d="M0 0.91C0 0.77 0.05 0.64 0.15 0.54C0.25 0.44 0.39 0.38 0.53 0.38L2.13 0.38C2.25 0.38 2.36 0.42 2.46 0.49C2.55 0.57 2.62 0.67 2.65 0.78L3.08 2.51L15.46 2.51C15.54 2.51 15.62 2.53 15.69 2.57C15.76 2.6 15.82 2.65 15.87 2.71C15.92 2.77 15.96 2.84 15.98 2.91C16 2.99 16 3.07 15.99 3.15L14.39 11.69C14.36 11.81 14.3 11.92 14.2 12C14.11 12.08 13.99 12.12 13.86 12.12L4.26 12.12C4.14 12.12 4.02 12.08 3.92 12C3.83 11.92 3.76 11.81 3.74 11.69L2.14 3.16L1.71 1.45L0.53 1.45C0.39 1.45 0.25 1.39 0.15 1.29C0.05 1.19 0 1.05 0 0.91ZM3.3 3.58L4.7 11.06L13.42 11.06L14.82 3.58L3.3 3.58ZM5.33 12.12C4.76 12.12 4.22 12.35 3.82 12.75C3.42 13.15 3.2 13.69 3.2 14.26C3.2 14.83 3.42 15.37 3.82 15.77C4.22 16.17 4.76 16.39 5.33 16.39C5.89 16.39 6.44 16.17 6.84 15.77C7.24 15.37 7.46 14.83 7.46 14.26C7.46 13.69 7.24 13.15 6.84 12.75C6.44 12.35 5.89 12.12 5.33 12.12ZM12.8 12.12C12.23 12.12 11.69 12.35 11.29 12.75C10.89 13.15 10.66 13.69 10.66 14.26C10.66 14.83 10.89 15.37 11.29 15.77C11.69 16.17 12.23 16.39 12.8 16.39C13.36 16.39 13.9 16.17 14.3 15.77C14.7 15.37 14.93 14.83 14.93 14.26C14.93 13.69 14.7 13.15 14.3 12.75C13.9 12.35 13.36 12.12 12.8 12.12ZM5.33 13.19C5.61 13.19 5.88 13.3 6.08 13.5C6.28 13.7 6.4 13.98 6.4 14.26C6.4 14.54 6.28 14.81 6.08 15.01C5.88 15.21 5.61 15.33 5.33 15.33C5.05 15.33 4.77 15.21 4.57 15.01C4.37 14.81 4.26 14.54 4.26 14.26C4.26 13.98 4.37 13.7 4.57 13.5C4.77 13.3 5.05 13.19 5.33 13.19ZM12.8 13.19C13.08 13.19 13.35 13.3 13.55 13.5C13.75 13.7 13.86 13.98 13.86 14.26C13.86 14.54 13.75 14.81 13.55 15.01C13.35 15.21 13.08 15.33 12.8 15.33C12.51 15.33 12.24 15.21 12.04 15.01C11.84 14.81 11.73 14.54 11.73 14.26C11.73 13.98 11.84 13.7 12.04 13.5C12.24 13.3 12.51 13.19 12.8 13.19Z" fill="#000000" fill-opacity="1.000000" fill-rule="nonzero"/>
	</g>
</svg>
