<svg width="24.000000" height="24.000000" viewBox="0 0 24 24" fill="none" xmlns="http://www.w3.org/2000/svg" xmlns:xlink="http://www.w3.org/1999/xlink">
	<desc>
			Created with Pixso.
	</desc>
	<defs>
		<clipPath id="clip1_928">
			<rect id="ci:menu-alt-01" rx="0.000000" width="23.000000" height="23.000000" transform="translate(0.500000 0.500000)" fill="white" fill-opacity="0"/>
		</clipPath>
	</defs>
	<rect id="ci:menu-alt-01" rx="0.000000" width="23.000000" height="23.000000" transform="translate(0.500000 0.500000)" fill="#FFFFFF" fill-opacity="0"/>
	<g clip-path="url(#clip1_928)">
		<path id="Vector" d="M21 18L13 18C12.44 18 12 17.55 12 17C12 16.44 12.44 16 13 16L21 16L21 18ZM21 13L4 13C3.44 13 3 12.55 3 12C3 11.44 3.44 11 4 11L21 11L21 13ZM21 8L4 8C3.44 8 3 7.55 3 7C3 6.44 3.44 6 4 6L21 6L21 8Z" fill="#000000" fill-opacity="1.000000" fill-rule="nonzero"/>
	</g>
</svg>
