<svg width="13.000000" height="13.240753" viewBox="0 0 13 13.2408" fill="none" xmlns="http://www.w3.org/2000/svg" xmlns:xlink="http://www.w3.org/1999/xlink">
	<desc>
			Created with Pixso.
	</desc>
	<defs/>
	<path id="Vector" d="M0 6.62C0 4.86 0.68 3.18 1.9 1.93C3.12 0.69 4.77 0 6.5 0C8.22 0 9.87 0.69 11.09 1.93C12.31 3.18 13 4.86 13 6.62C13 8.37 12.31 10.06 11.09 11.3C9.87 12.54 8.22 13.24 6.5 13.24C4.77 13.24 3.12 12.54 1.9 11.3C0.68 10.06 0 8.37 0 6.62L0 6.62ZM6.12 9.45L9.87 4.68L9.19 4.13L6 8.19L3.74 6.28L3.18 6.95L6.12 9.45L6.12 9.45Z" fill="#000000" fill-opacity="1.000000" fill-rule="evenodd"/>
</svg>
